<svg width="422" height="447" viewBox="0 0 422 447" fill="none" xmlns="http://www.w3.org/2000/svg">
<g id="Group 2">
<g id="Group 1">
<path id="Vector" d="M376.609 133.353C376.609 133.353 382.895 87.2596 393.371 99.8306C403.846 112.402 393.371 131.258 393.371 131.258L384.99 141.734L376.609 135.448V133.353Z" fill="#B06C49"/>
<path id="Vector_2" d="M351.467 148.019C351.467 148.019 372.419 124.972 376.609 129.163C380.8 133.353 393.371 135.448 391.275 143.829C389.18 152.21 345.182 179.447 345.182 179.447L351.467 148.019Z" fill="#00CC00"/>
<path id="Vector_3" opacity="0.1" d="M351.467 148.019C351.467 148.019 372.419 124.972 376.609 129.163C380.8 133.353 393.371 135.448 391.275 143.829C389.18 152.21 345.182 179.447 345.182 179.447L351.467 148.019Z" fill="#00CC00"/>
<path id="Vector_4" d="M232.043 145.924V162.685C232.043 162.685 229.948 200.398 242.519 198.303C255.09 196.208 248.805 164.781 248.805 164.781L246.71 145.924H232.043Z" fill="#B06C49"/>
<path id="Vector_5" d="M238.472 281C238.472 281 219.616 310.332 213.331 312.427C207.045 314.523 173.523 333.379 169.332 352.235L140 389.948L154.666 408.805C154.666 408.805 221.711 337.569 240.568 331.284C259.424 324.998 278.28 293.571 278.28 293.571L238.472 281Z" fill="#B06C49"/>
<path id="Vector_6" d="M387.085 219.255C387.085 219.255 426.893 225.54 420.608 250.682C414.322 275.824 353.563 328.203 353.563 328.203L351.467 340.774L328.421 344.964L317.945 334.488L320.04 328.203C320.04 328.203 345.182 305.156 347.277 296.776C349.372 288.395 372.419 254.872 382.895 252.777L368.229 244.397L387.085 219.255Z" fill="#B06C49"/>
<path id="Vector_7" d="M146.142 376.392C146.142 376.392 154.523 363.821 141.952 365.916C129.381 368.011 121 370.106 121 378.487C121 386.867 131.476 445.532 144.047 441.341C156.618 437.151 146.142 418.295 146.142 418.295C146.142 418.295 152.427 401.533 156.618 399.438C160.808 397.343 160.808 386.867 156.618 386.867C152.427 386.867 144.047 380.582 146.142 376.392Z" fill="#2F2E41"/>
<path id="Vector_8" d="M324.23 330.298C324.23 330.298 324.23 319.822 315.85 330.298C307.469 340.774 303.279 349.154 311.659 355.44C320.04 361.725 349.372 376.391 349.372 376.391C349.372 376.391 380.8 382.677 376.609 368.011C376.609 368.011 355.658 357.535 355.658 349.154C355.658 340.774 355.658 326.108 349.372 330.298C343.087 334.488 324.23 336.583 324.23 330.298Z" fill="#2F2E41"/>
<path id="Vector_9" d="M284.422 173.161C284.422 173.161 255.09 177.351 257.185 219.255C257.185 219.255 219.472 256.967 229.948 269.538C240.424 282.109 263.471 305.156 271.851 298.871C280.232 292.585 305.374 244.397 305.374 244.397C305.374 244.397 364.038 265.348 374.514 254.872C384.99 244.397 395.466 219.255 395.466 219.255L343.087 192.018L284.422 173.161Z" fill="#2F2E41"/>
<path id="Vector_10" d="M366.134 53.7371C380.019 53.7371 391.275 42.4806 391.275 28.5952C391.275 14.7097 380.019 3.45325 366.134 3.45325C352.248 3.45325 340.992 14.7097 340.992 28.5952C340.992 42.4806 352.248 53.7371 366.134 53.7371Z" fill="#B06C49"/>
<path id="Vector_11" d="M347.277 30.6903C347.277 30.6903 332.611 53.7371 328.421 55.8322C324.23 57.9274 357.753 78.8789 357.753 78.8789C357.753 78.8789 357.753 51.6419 368.229 45.3564L347.277 30.6903Z" fill="#B06C49"/>
<path id="Vector_12" d="M345.182 53.737C345.182 53.737 311.659 43.2613 305.374 60.0225C299.089 76.7838 284.422 108.211 286.518 129.163C288.613 150.114 292.803 145.924 286.518 152.21C280.232 158.495 276.042 154.305 278.137 162.685C280.232 171.066 282.327 171.066 280.232 175.256C278.137 179.447 305.374 194.113 328.421 196.208L351.468 198.303C351.468 198.303 351.468 160.59 355.658 152.21C359.848 143.829 368.229 127.068 368.229 120.782V104.151C368.229 93.082 365.34 82.2043 359.848 72.5935C359.848 72.5935 347.277 53.737 345.182 53.737Z" fill="#00CC00"/>
<path id="Vector_13" d="M320.04 62.1177C320.04 62.1177 242.519 68.4031 234.139 89.3547C225.758 110.306 221.568 152.21 229.948 152.21C238.329 152.21 248.805 156.4 250.9 152.21C252.995 148.019 261.376 106.116 263.471 106.116C265.566 106.116 328.421 99.8305 328.421 99.8305C328.421 99.8305 355.658 66.308 320.04 62.1177Z" fill="#00CC00"/>
<path id="Vector_14" d="M367.144 22.3621C367.144 22.3621 373.816 10.7675 382.156 20.8385C390.495 30.9094 404.062 12.4023 401.98 8.45325C399.897 4.50421 392.542 8.63079 379.938 4.5104C367.333 0.390014 343.053 -8.00406 338.987 19.3777C334.92 46.7594 344.605 43.8889 344.605 43.8889C344.605 43.8889 349.044 19.6257 353.056 26.5951L357.068 33.5645L360.548 34.4211L367.144 22.3621Z" fill="#2F2E41"/>
</g>
<line id="Line 1" x1="239.011" y1="11.5" x2="1.0105" y2="12.5" stroke="black" stroke-width="5"/>
<line id="Line 2" x1="200.038" y1="103.5" x2="1.03768" y2="106.5" stroke="black" stroke-width="5"/>
<line id="Line 3" x1="197.96" y1="224.5" x2="0.962294" y2="221.373" stroke="black" stroke-width="5"/>
<line id="Line 4" x1="119.042" y1="442.5" x2="1.04237" y2="444.5" stroke="black" stroke-width="5"/>
<line id="Line 5" x1="182.028" y1="313.5" x2="1.02762" y2="315.5" stroke="black" stroke-width="5"/>
<line id="Line 6" x1="260.987" y1="58.5" x2="70.9868" y2="57.4893" stroke="black" stroke-width="5"/>
<line id="Line 7" x1="208.018" y1="167.5" x2="71.0182" y2="168.5" stroke="black" stroke-width="5"/>
<line id="Line 8" x1="198" y1="274.5" x2="71" y2="274.5" stroke="black" stroke-width="5"/>
<line id="Line 9" x1="107" y1="385.5" x2="71" y2="385.5" stroke="black" stroke-width="5"/>
</g>
</svg>
